<?xml version="1.0"?>
<svg width="24" height="24" xmlns="http://www.w3.org/2000/svg" xmlns:svg="http://www.w3.org/2000/svg">
 <g>
  <title>Layer 1</title>
  <g id="Capa_1_2_">
   <circle id="svg_1" r="3.016" cy="11.984" cx="12" fill="#FFFFFF"/>
   <path id="svg_2" d="m19.561001,16.750999c0,0 -0.981001,0.812 -1.545,1.015001l0.844,-1.483c-0.001001,-0.002001 0.823999,-0.109001 0.701,0.467999z" fill="#FFFFFF"/>
   <g display="none" id="Capa_1_1_">
    <path id="svg_3" d="m0,0l24,0l0,24l-24,0l0,-24zm0,0l24,0l0,24l-24,0l0,-24zm0,0l24,0l0,24l-24,0l0,-24zm0,0l24,0l0,24l-24,0l0,-24z" fill="none"/>
    <path id="svg_4" d="m15,11.92c-0.01,-0.32 -0.07,-0.63 -0.17,-0.91c-0.01,-0.04 -0.021,-0.07 -0.03,-0.1c-0.01,-0.03 -0.021,-0.059999 -0.04,-0.08c-0.05,-0.139999 -0.119,-0.27 -0.199,-0.4c-0.051,-0.08 -0.101,-0.150001 -0.148,-0.22c-0.17,-0.23 -0.37,-0.43 -0.592,-0.59c-0.09,-0.07 -0.188,-0.14 -0.288,-0.2c-0.11,-0.06 -0.222,-0.12 -0.341,-0.17c-0.012,-0.01 -0.021,-0.01 -0.029,-0.01c-0.092,-0.04 -0.182,-0.08 -0.271,-0.099999c-0.021,-0.01 -0.041,-0.02 -0.070001,-0.02c-0.061,-0.02 -0.118999,-0.03 -0.179999,-0.05c-0.011001,0 -0.011001,0 -0.021,0c-0.030001,0 -0.070001,-0.009999 -0.110001,-0.02c-0.03,0 -0.059999,-0.01 -0.09,-0.01c-0.129999,-0.02 -0.27,-0.03 -0.41,-0.03l-0.17,0.01l3.150001,3.15l0.02,-0.16c-0.000999,-0.030001 -0.011,-0.06 -0.011,-0.09zm3.08,5.891001l-2.41,-2.410001l-1.42,-1.42l-4.23,-4.229l-6.75,-6.752l-1.27,1.27l2.28,2.28l0.46,0.46c-0.25,0.18 -0.48,0.38 -0.71,0.6c-0.16,0.14 -0.31,0.29 -0.47,0.45c-0.18,0.179999 -0.36,0.379999 -0.53,0.57c-0.33,0.38 -0.63,0.78 -0.91,1.21c-0.16,0.23 -0.3,0.48 -0.44,0.73c-0.26,0.46 -0.48,0.93 -0.68,1.43c0.24,0.6 0.52,1.18 0.85,1.72c0.11,0.21 0.24,0.41 0.38,0.601c0.15,0.222 0.3,0.439 0.46,0.649c0.17,0.2 0.33,0.4 0.51,0.591c0.11,0.119 0.22,0.239 0.34,0.359c0.26,0.280001 0.54,0.539999 0.83,0.780001c0.2,0.17 0.4,0.33 0.61,0.479c0,0 0,0.009998 0.01,0.021c0.04,0.029999 0.07,0.049999 0.11,0.068998c0.16,0.131001 0.34,0.238001 0.51,0.34c0.08,0.070002 0.16,0.108 0.24,0.16c0.1,0.068001 0.22,0.141001 0.33,0.188002c0.2,0.119999 0.39,0.229 0.6,0.319c0.24,0.118999 0.49,0.237999 0.74,0.33c0.09,0.050999 0.19,0.08 0.29,0.108c0.19,0.097 0.39,0.165998 0.6,0.224998c0,0 0,0 0.01,0c0.24,0.08 0.48,0.148001 0.73,0.211c0.3,0.08 0.610001,0.140001 0.93,0.188c0.09,0.021 0.190001,0.030001 0.29,0.040001c0.22,0.039999 0.440001,0.062 0.66,0.08l0.04,0c0.31,0.030001 0.620001,0.039999 0.93,0.039999c0.16,0 0.33,0 0.49,-0.009998c0.1,0 0.21,-0.012001 0.31,-0.021002c0.24,-0.009998 0.47,-0.039999 0.7,-0.067999c0.141,-0.01 0.279,-0.039 0.42,-0.062c0.68,-0.108 1.33,-0.271 1.95,-0.489c0.170001,-0.060999 0.339999,-0.118999 0.509999,-0.188l0.42,0.42l2.93,2.92l1.27,-1.27l-2.92,-2.918999zm-5.5,-0.851002c-0.19,0.030001 -0.38,0.040001 -0.58,0.040001c-2.76,0 -5,-2.24 -5,-5c0,-0.2 0.01,-0.39 0.04,-0.58c0.02,-0.15 0.04,-0.3 0.07,-0.45c0.09,-0.41 0.24,-0.8 0.42,-1.17l1.55,1.55c-0.02,0.089999 -0.04,0.179999 -0.05,0.27c-0.02,0.13 -0.03,0.25 -0.03,0.38c0,1.66 1.34,3 3,3c0.13,0 0.25,-0.01 0.38,-0.03c0.09,-0.01 0.181,-0.028 0.271,-0.05l1.552,1.549999c-0.37,0.181002 -0.761,0.33 -1.17,0.421001c-0.153,0.028999 -0.303,0.047998 -0.453,0.068998zm9.18,-7.279999c-0.33,-0.490001 -0.689001,-0.940001 -1.08,-1.37c-0.198999,-0.21 -0.4,-0.420001 -0.609001,-0.610001c-0.181999,-0.17 -0.358999,-0.33 -0.540998,-0.47c-0.118,-0.11 -0.25,-0.21 -0.379002,-0.31c-0.011999,0 -0.011999,-0.01 -0.011999,-0.01c-0.049999,-0.04 -0.1,-0.07 -0.146999,-0.11c-0.142,-0.1 -0.280001,-0.2 -0.421001,-0.3s-0.300999,-0.2 -0.448999,-0.28c-0.101999,-0.07 -0.199999,-0.13 -0.313,-0.18c-0.18,-0.11 -0.357,-0.21 -0.539,-0.29c-0.040001,-0.02 -0.07,-0.04 -0.110001,-0.05c-0.24,-0.13 -0.48,-0.24 -0.73,-0.33c-0.029001,-0.02 -0.059999,-0.03 -0.1,-0.04c-0.25,-0.1 -0.5,-0.19 -0.75,-0.27c-0.57,-0.18 -1.15,-0.32 -1.75,-0.42c-0.301,-0.04 -0.6,-0.08 -0.91,-0.1c-0.3,-0.03 -0.61,-0.04 -0.92,-0.04c-0.21,0 -0.43,0.01 -0.64,0.02c-0.139999,0 -0.27,0.01 -0.41,0.03c-0.34,0.03 -0.679999,0.07 -1.009999,0.13c-0.17,0.03 -0.330001,0.06 -0.490001,0.1c-0.17,0.04 -0.33,0.08 -0.49,0.12s-0.32,0.09 -0.48,0.14s-0.32,0.1 -0.469999,0.16l2.15,2.15l0.01,0.01c0.29,-0.12 0.58,-0.2 0.89,-0.27c0.139999,-0.03 0.28,-0.05 0.429999,-0.06c0.17,-0.02 0.34,-0.03 0.51,-0.03c2.76,0 5,2.24 5,5c0,0.17 -0.01,0.34 -0.028999,0.51c-0.011002,0.15 -0.029001,0.29 -0.061001,0.432c-0.07,0.311 -0.15,0.601 -0.271,0.891l0.012001,0.01l2.771,2.771l0.141998,0.140999c0.188002,-0.16 0.369001,-0.32 0.551001,-0.49c0.18,-0.17 0.35,-0.339999 0.52,-0.52c0.17,-0.182 0.33,-0.37 0.49,-0.561c0.148001,-0.189 0.299999,-0.382 0.448999,-0.58c0.141001,-0.199 0.279001,-0.399 0.41,-0.609s0.261002,-0.42 0.381001,-0.641c0.238001,-0.432 0.448999,-0.892 0.630001,-1.352c-0.335001,-0.822 -0.745001,-1.602 -1.235001,-2.322z"/>
   </g>
   <g id="Capa_2">
    <path id="svg_5" d="m0,0l24,0l0,24l-24,0l0,-24z" fill="none"/>
    <path id="svg_6" d="m14.83,11.01c-0.01,-0.04 -0.021,-0.07 -0.03,-0.1c-0.01,-0.03 -0.021,-0.059999 -0.04,-0.08c-0.05,-0.139999 -0.119,-0.27 -0.199,-0.4c-0.051,-0.08 -0.101,-0.150001 -0.148,-0.22c-0.17,-0.23 -0.37,-0.43 -0.592,-0.59c-0.09,-0.07 -0.188,-0.14 -0.288,-0.2c-0.11,-0.06 -0.222,-0.12 -0.341,-0.17c-0.012,-0.01 -0.021,-0.01 -0.029,-0.01c-0.092,-0.04 -0.182,-0.08 -0.271,-0.099999c-0.021,-0.01 -0.041,-0.02 -0.070001,-0.02c-0.061,-0.02 -0.118999,-0.03 -0.179999,-0.05c-0.011001,0 -0.011001,0 -0.021,0c0,0 -0.011001,0 -0.011001,-0.009999c-0.039,-0.01 -0.068999,-0.01 -0.101999,-0.01c-0.02,-0.01 -0.030001,-0.01 -0.04,-0.01c-0.01,0 -0.030001,-0.01 -0.05,-0.01l0,0.01c-0.13,-0.02 -0.27,-0.03 -0.41,-0.03l-0.17,0.01l3.148,3.15c0.014,-0.06 0.014,-0.11 0.014,-0.17l0,-0.08c-0.01,-0.32 -0.07,-0.63 -0.17,-0.91zm-4.94,-1.13c-0.04,0.03 -0.070001,0.07 -0.1,0.11c-0.07,0.06 -0.12,0.12 -0.17,0.190001c-0.01,0.009999 -0.02,0.02 -0.02,0.03c-0.06,0.06 -0.1,0.13 -0.14,0.2c-0.18,0.280001 -0.31,0.6 -0.39,0.93c-0.02,0.09 -0.03,0.19 -0.04,0.28c-0.02,0.13 -0.03,0.25 -0.03,0.38c0,1.66 1.34,3 3,3c0.13,0 0.25,-0.01 0.38,-0.03c0.09,-0.01 0.19,-0.02 0.28,-0.04c0.33,-0.08 0.648,-0.21 0.93,-0.39c0.07,-0.04 0.141,-0.08 0.2,-0.14c0.17,-0.12 0.33,-0.262 0.46,-0.42l-4.23,-4.23c-0.05,0.04 -0.09,0.08 -0.13,0.13zm4.94,1.13c-0.01,-0.04 -0.021,-0.07 -0.03,-0.1c-0.01,-0.03 -0.021,-0.059999 -0.04,-0.08c-0.05,-0.139999 -0.119,-0.27 -0.199,-0.4c-0.051,-0.08 -0.101,-0.150001 -0.148,-0.22c-0.17,-0.23 -0.37,-0.43 -0.592,-0.59c-0.09,-0.07 -0.188,-0.14 -0.288,-0.2c-0.11,-0.06 -0.222,-0.12 -0.341,-0.17c-0.012,-0.01 -0.021,-0.01 -0.029,-0.01c-0.092,-0.04 -0.182,-0.08 -0.271,-0.099999c-0.021,-0.01 -0.041,-0.02 -0.070001,-0.02c-0.061,-0.02 -0.118999,-0.03 -0.179999,-0.05c-0.011001,0 -0.011001,0 -0.021,0c0,0 -0.011001,0 -0.011001,-0.009999c-0.039,-0.01 -0.068999,-0.01 -0.101999,-0.01c-0.02,-0.01 -0.030001,-0.01 -0.04,-0.01c-0.01,0 -0.030001,-0.01 -0.05,-0.01l0,0.01c-0.13,-0.02 -0.27,-0.03 -0.41,-0.03l-0.17,0.01l3.148,3.15c0.014,-0.06 0.014,-0.11 0.014,-0.17l0,-0.08c-0.01,-0.32 -0.07,-0.63 -0.17,-0.91zm-4.94,-1.13c-0.04,0.03 -0.070001,0.07 -0.1,0.11c-0.07,0.06 -0.12,0.12 -0.17,0.190001c-0.01,0.009999 -0.02,0.02 -0.02,0.03c-0.06,0.06 -0.1,0.13 -0.14,0.2c-0.18,0.280001 -0.31,0.6 -0.39,0.93c-0.02,0.09 -0.03,0.19 -0.04,0.28c-0.02,0.13 -0.03,0.25 -0.03,0.38c0,1.66 1.34,3 3,3c0.13,0 0.25,-0.01 0.38,-0.03c0.09,-0.01 0.19,-0.02 0.28,-0.04c0.33,-0.08 0.648,-0.21 0.93,-0.39c0.07,-0.04 0.141,-0.08 0.2,-0.14c0.17,-0.12 0.33,-0.262 0.46,-0.42l-4.23,-4.23c-0.05,0.04 -0.09,0.08 -0.13,0.13zm4.94,1.13c-0.01,-0.04 -0.021,-0.07 -0.03,-0.1c-0.01,-0.03 -0.021,-0.059999 -0.04,-0.08c-0.05,-0.139999 -0.119,-0.27 -0.199,-0.4c-0.051,-0.08 -0.101,-0.150001 -0.148,-0.22c-0.17,-0.23 -0.37,-0.43 -0.592,-0.59c-0.09,-0.07 -0.188,-0.14 -0.288,-0.2c-0.11,-0.06 -0.222,-0.12 -0.341,-0.17c-0.012,-0.01 -0.021,-0.01 -0.029,-0.01c-0.092,-0.04 -0.182,-0.08 -0.271,-0.099999c-0.021,-0.01 -0.041,-0.02 -0.070001,-0.02c-0.061,-0.02 -0.118999,-0.03 -0.179999,-0.05c-0.011001,0 -0.011001,0 -0.021,0c0,0 -0.011001,0 -0.011001,-0.009999c-0.039,-0.01 -0.068999,-0.01 -0.101999,-0.01c-0.02,-0.01 -0.030001,-0.01 -0.04,-0.01c-0.01,0 -0.030001,-0.01 -0.05,-0.01l0,0.01c-0.13,-0.02 -0.27,-0.03 -0.41,-0.03l-0.17,0.01l3.148,3.15c0.014,-0.06 0.014,-0.11 0.014,-0.17l0,-0.08c-0.01,-0.32 -0.07,-0.63 -0.17,-0.91zm-4.94,-1.13c-0.04,0.03 -0.070001,0.07 -0.1,0.11c-0.07,0.06 -0.12,0.12 -0.17,0.190001c-0.01,0.009999 -0.02,0.02 -0.02,0.03c-0.06,0.06 -0.1,0.13 -0.14,0.2c-0.18,0.280001 -0.31,0.6 -0.39,0.93c-0.02,0.09 -0.03,0.19 -0.04,0.28c-0.02,0.13 -0.03,0.25 -0.03,0.38c0,1.66 1.34,3 3,3c0.13,0 0.25,-0.01 0.38,-0.03c0.09,-0.01 0.19,-0.02 0.28,-0.04c0.33,-0.08 0.648,-0.21 0.93,-0.39c0.07,-0.04 0.141,-0.08 0.2,-0.14c0.17,-0.12 0.33,-0.262 0.46,-0.42l-4.23,-4.23c-0.05,0.04 -0.09,0.08 -0.13,0.13zm4.94,1.13c-0.01,-0.04 -0.021,-0.07 -0.03,-0.1c-0.01,-0.03 -0.021,-0.059999 -0.04,-0.08c-0.05,-0.139999 -0.119,-0.27 -0.199,-0.4c-0.051,-0.08 -0.101,-0.150001 -0.148,-0.22c-0.17,-0.23 -0.37,-0.43 -0.592,-0.59c-0.09,-0.07 -0.188,-0.14 -0.288,-0.2c-0.11,-0.06 -0.222,-0.12 -0.341,-0.17c-0.012,-0.01 -0.021,-0.01 -0.029,-0.01c-0.092,-0.04 -0.182,-0.08 -0.271,-0.099999c-0.021,-0.01 -0.041,-0.02 -0.070001,-0.02c-0.061,-0.02 -0.118999,-0.03 -0.179999,-0.05c-0.011001,0 -0.011001,0 -0.021,0c0,0 -0.011001,0 -0.011001,-0.009999c-0.039,-0.01 -0.068999,-0.01 -0.101999,-0.01c-0.02,-0.01 -0.030001,-0.01 -0.04,-0.01c-0.01,0 -0.030001,-0.01 -0.05,-0.01l0,0.01c-0.13,-0.02 -0.27,-0.03 -0.41,-0.03l-0.17,0.01l3.148,3.15c0.014,-0.06 0.014,-0.11 0.014,-0.17l0,-0.08c-0.01,-0.32 -0.07,-0.63 -0.17,-0.91zm-4.94,-1.13c-0.04,0.03 -0.070001,0.07 -0.1,0.11c-0.07,0.06 -0.12,0.12 -0.17,0.190001c-0.01,0.009999 -0.02,0.02 -0.02,0.03c-0.06,0.06 -0.1,0.13 -0.14,0.2c-0.18,0.280001 -0.31,0.6 -0.39,0.93c-0.02,0.09 -0.03,0.19 -0.04,0.28c-0.02,0.13 -0.03,0.25 -0.03,0.38c0,1.66 1.34,3 3,3c0.13,0 0.25,-0.01 0.38,-0.03c0.09,-0.01 0.19,-0.02 0.28,-0.04c0.33,-0.08 0.648,-0.21 0.93,-0.39c0.07,-0.04 0.141,-0.08 0.2,-0.14c0.17,-0.12 0.33,-0.262 0.46,-0.42l-4.23,-4.23c-0.05,0.04 -0.09,0.08 -0.13,0.13zm4.94,1.13c-0.01,-0.04 -0.021,-0.07 -0.03,-0.1c-0.01,-0.03 -0.021,-0.059999 -0.04,-0.08c-0.05,-0.139999 -0.119,-0.27 -0.199,-0.4c-0.051,-0.08 -0.101,-0.150001 -0.148,-0.22c-0.17,-0.23 -0.37,-0.43 -0.592,-0.59c-0.09,-0.07 -0.188,-0.14 -0.288,-0.2c-0.11,-0.06 -0.222,-0.12 -0.341,-0.17c-0.012,-0.01 -0.021,-0.01 -0.029,-0.01c-0.092,-0.04 -0.182,-0.08 -0.271,-0.099999c-0.021,-0.01 -0.041,-0.02 -0.070001,-0.02c-0.061,-0.02 -0.118999,-0.03 -0.179999,-0.05c-0.011001,0 -0.011001,0 -0.021,0c0,0 -0.011001,0 -0.011001,-0.009999c-0.039,-0.01 -0.068999,-0.01 -0.101999,-0.01c-0.02,-0.01 -0.030001,-0.01 -0.04,-0.01c-0.01,0 -0.030001,-0.01 -0.05,-0.01l0,0.01c-0.13,-0.02 -0.27,-0.03 -0.41,-0.03l-0.17,0.01l3.148,3.15c0.014,-0.06 0.014,-0.11 0.014,-0.17l0,-0.08c-0.01,-0.32 -0.07,-0.63 -0.17,-0.91zm-4.94,-1.13c-0.04,0.03 -0.070001,0.07 -0.1,0.11c-0.07,0.06 -0.12,0.12 -0.17,0.190001c-0.01,0.009999 -0.02,0.02 -0.02,0.03c-0.06,0.06 -0.1,0.13 -0.14,0.2c-0.18,0.280001 -0.31,0.6 -0.39,0.93c-0.02,0.09 -0.03,0.19 -0.04,0.28c-0.02,0.13 -0.03,0.25 -0.03,0.38c0,1.66 1.34,3 3,3c0.13,0 0.25,-0.01 0.38,-0.03c0.09,-0.01 0.19,-0.02 0.28,-0.04c0.33,-0.08 0.648,-0.21 0.93,-0.39c0.07,-0.04 0.141,-0.08 0.2,-0.14c0.17,-0.12 0.33,-0.262 0.46,-0.42l-4.23,-4.23c-0.05,0.04 -0.09,0.08 -0.13,0.13zm4.94,1.13c-0.01,-0.04 -0.021,-0.07 -0.03,-0.1c-0.01,-0.03 -0.021,-0.059999 -0.04,-0.08c-0.05,-0.139999 -0.119,-0.27 -0.199,-0.4c-0.051,-0.08 -0.101,-0.150001 -0.148,-0.22c-0.17,-0.23 -0.37,-0.43 -0.592,-0.59c-0.09,-0.07 -0.188,-0.14 -0.288,-0.2c-0.11,-0.06 -0.222,-0.12 -0.341,-0.17c-0.012,-0.01 -0.021,-0.01 -0.029,-0.01c-0.092,-0.04 -0.182,-0.08 -0.271,-0.099999c-0.021,-0.01 -0.041,-0.02 -0.070001,-0.02c-0.061,-0.02 -0.118999,-0.03 -0.179999,-0.05c-0.011001,0 -0.011001,0 -0.021,0c0,0 -0.011001,0 -0.011001,-0.009999c-0.039,-0.01 -0.068999,-0.01 -0.101999,-0.01c-0.02,-0.01 -0.030001,-0.01 -0.04,-0.01c-0.01,0 -0.030001,-0.01 -0.05,-0.01l0,0.01c-0.13,-0.02 -0.27,-0.03 -0.41,-0.03l-0.17,0.01l3.148,3.15c0.014,-0.06 0.014,-0.11 0.014,-0.17l0,-0.08c-0.01,-0.32 -0.07,-0.63 -0.17,-0.91zm-4.94,-1.13c-0.04,0.03 -0.070001,0.07 -0.1,0.11c-0.07,0.06 -0.12,0.12 -0.17,0.190001c-0.01,0.009999 -0.02,0.02 -0.02,0.03c-0.06,0.06 -0.1,0.13 -0.14,0.2c-0.18,0.280001 -0.31,0.6 -0.39,0.93c-0.02,0.09 -0.03,0.19 -0.04,0.28c-0.02,0.13 -0.03,0.25 -0.03,0.38c0,1.66 1.34,3 3,3c0.13,0 0.25,-0.01 0.38,-0.03c0.09,-0.01 0.19,-0.02 0.28,-0.04c0.33,-0.08 0.648,-0.21 0.93,-0.39c0.07,-0.04 0.141,-0.08 0.2,-0.14c0.17,-0.12 0.33,-0.262 0.46,-0.42l-4.23,-4.23c-0.05,0.04 -0.09,0.08 -0.13,0.13zm11.87,-0.2c-0.309999,-0.490001 -0.68,-0.940001 -1.08,-1.37c-0.198999,-0.21 -0.4,-0.420001 -0.609001,-0.610001c-0.181999,-0.17 -0.358999,-0.33 -0.540998,-0.47c-0.118,-0.11 -0.25,-0.21 -0.379002,-0.31c-0.011999,0 -0.011999,-0.01 -0.011999,-0.01c-0.049999,-0.04 -0.1,-0.07 -0.146999,-0.11c-0.142,-0.1 -0.280001,-0.2 -0.421001,-0.3s-0.300999,-0.2 -0.448999,-0.28c-0.101999,-0.07 -0.199999,-0.13 -0.313,-0.18c-0.18,-0.11 -0.357,-0.21 -0.539,-0.29c-0.040001,-0.02 -0.07,-0.04 -0.110001,-0.05c-0.24,-0.13 -0.48,-0.24 -0.73,-0.33c-0.029001,-0.02 -0.059999,-0.03 -0.1,-0.04c-0.25,-0.1 -0.5,-0.19 -0.75,-0.27c-0.57,-0.19 -1.15,-0.33 -1.75,-0.42c-0.301,-0.04 -0.6,-0.08 -0.91,-0.1c-0.3,-0.03 -0.61,-0.04 -0.92,-0.04c-0.21,0 -0.43,0.01 -0.64,0.02c-0.139999,0 -0.27,0.01 -0.41,0.03c-0.34,0.03 -0.679999,0.07 -1.009999,0.13c-0.17,0.03 -0.330001,0.06 -0.490001,0.1c-0.17,0.04 -0.33,0.08 -0.49,0.12s-0.32,0.09 -0.48,0.14s-0.32,0.1 -0.469999,0.16l2.15,2.15c0.29,-0.12 0.59,-0.2 0.900001,-0.26c0.139999,-0.03 0.28,-0.05 0.429999,-0.06c0.17,-0.02 0.34,-0.03 0.51,-0.03c2.76,0 5,2.24 5,5c0,0.17 -0.01,0.34 -0.028999,0.51c-0.011002,0.15 -0.029001,0.29 -0.061001,0.432c-0.060999,0.311 -0.141001,0.608 -0.26,0.898l2.77,2.771l0.141001,0.139999c0.188999,-0.16 0.368999,-0.319 0.550999,-0.49c0.181,-0.17 0.351,-0.34 0.521,-0.52c0.17,-0.181 0.33,-0.37 0.49,-0.562c0.147001,-0.188 0.300001,-0.381 0.448,-0.58c0.142,-0.199 0.279001,-0.398 0.410002,-0.608s0.261999,-0.421 0.380999,-0.642c0.247,-0.429 0.458,-0.879 0.638,-1.349c-0.32,-0.82 -0.73,-1.6 -1.24,-2.32zm-8.731,7.211c-0.149,0.028999 -0.299001,0.050999 -0.449,0.068998c-0.19,0.030001 -0.38,0.040001 -0.58,0.040001c-2.76,0 -5,-2.24 -5,-5c0,-0.2 0.01,-0.39 0.04,-0.58c0.02,-0.15 0.04,-0.3 0.07,-0.45c0.21,-1.03 0.75,-1.95 1.49,-2.64l-2.33,-2.33c-0.49,0.26 -0.96,0.57 -1.41,0.91c-0.04,0.03 -0.08,0.06 -0.12,0.1c-0.25,0.18 -0.48,0.38 -0.71,0.6c-0.16,0.14 -0.31,0.29 -0.47,0.45c-0.18,0.179999 -0.36,0.379999 -0.53,0.57c-0.33,0.38 -0.63,0.78 -0.91,1.21c-0.16,0.23 -0.3,0.48 -0.44,0.73c-0.26,0.46 -0.49,0.93 -0.68,1.43c0.24,0.6 0.52,1.18 0.85,1.72c0.11,0.21 0.24,0.41 0.38,0.601c0.15,0.222 0.3,0.439 0.46,0.649c0.17,0.2 0.33,0.4 0.51,0.591c0.11,0.119 0.22,0.239 0.34,0.359c0.26,0.280001 0.54,0.539999 0.83,0.780001c0.2,0.17 0.4,0.33 0.61,0.479c0,0 0,0.009998 0.01,0.021c0.04,0.029999 0.07,0.049999 0.11,0.068998c0.16,0.131001 0.34,0.238001 0.51,0.34c0.08,0.070002 0.16,0.108 0.24,0.16c0.1,0.068001 0.22,0.141001 0.33,0.188002c0.2,0.119999 0.39,0.229 0.6,0.319c0.24,0.118999 0.49,0.237999 0.74,0.33c0.09,0.050999 0.19,0.08 0.29,0.108c0.19,0.097 0.39,0.165998 0.6,0.224998c0,0 0,0 0.01,0c0.24,0.08 0.48,0.148001 0.73,0.211c0.3,0.08 0.610001,0.140001 0.93,0.188c0.09,0.021 0.190001,0.030001 0.29,0.040001c0.22,0.039999 0.440001,0.062 0.66,0.08l0.04,0c0.31,0.030001 0.620001,0.039999 0.93,0.039999c0.16,0 0.33,0 0.49,-0.009998c0.1,0 0.21,-0.012001 0.31,-0.021002c0.24,-0.009998 0.47,-0.039999 0.7,-0.067999c0.141,-0.01 0.279,-0.039 0.42,-0.062c0.68,-0.108 1.33,-0.271 1.95,-0.489c0.170001,-0.060999 0.339999,-0.118999 0.509999,-0.188c0.591002,-0.24 1.160002,-0.521 1.700001,-0.851l-2.41,-2.409c-0.690001,0.741001 -1.609,1.280001 -2.641,1.491001zm1.801,-5.881001c-0.01,-0.04 -0.021,-0.07 -0.03,-0.1c-0.01,-0.03 -0.021,-0.059999 -0.04,-0.08c-0.05,-0.139999 -0.119,-0.27 -0.199,-0.4c-0.051,-0.08 -0.101,-0.150001 -0.148,-0.22c-0.17,-0.23 -0.37,-0.43 -0.592,-0.59c-0.09,-0.07 -0.188,-0.14 -0.288,-0.2c-0.11,-0.06 -0.222,-0.12 -0.341,-0.17c-0.012,-0.01 -0.021,-0.01 -0.029,-0.01c-0.092,-0.04 -0.182,-0.08 -0.271,-0.099999c-0.021,-0.01 -0.041,-0.02 -0.070001,-0.02c-0.061,-0.02 -0.118999,-0.03 -0.179999,-0.05c-0.011001,0 -0.011001,0 -0.021,0c0,0 -0.011001,0 -0.011001,-0.009999c-0.039,-0.01 -0.068999,-0.01 -0.101999,-0.01c-0.02,-0.01 -0.030001,-0.01 -0.04,-0.01c-0.01,0 -0.030001,-0.01 -0.05,-0.01l0,0.01c-0.13,-0.02 -0.27,-0.03 -0.41,-0.03l-0.17,0.01l3.148,3.15c0.014,-0.06 0.014,-0.11 0.014,-0.17l0,-0.08c-0.01,-0.32 -0.07,-0.63 -0.17,-0.91zm-4.94,-1.13c-0.04,0.03 -0.070001,0.07 -0.1,0.11c-0.07,0.06 -0.12,0.12 -0.17,0.190001c-0.01,0.009999 -0.02,0.02 -0.02,0.03c-0.06,0.06 -0.1,0.13 -0.14,0.2c-0.18,0.280001 -0.31,0.6 -0.39,0.93c-0.02,0.09 -0.03,0.19 -0.04,0.28c-0.02,0.13 -0.03,0.25 -0.03,0.38c0,1.66 1.34,3 3,3c0.13,0 0.25,-0.01 0.38,-0.03c0.09,-0.01 0.19,-0.02 0.28,-0.04c0.33,-0.08 0.648,-0.21 0.93,-0.39c0.07,-0.04 0.141,-0.08 0.2,-0.14c0.17,-0.12 0.33,-0.262 0.46,-0.42l-4.23,-4.23c-0.05,0.04 -0.09,0.08 -0.13,0.13zm4.94,1.13c-0.01,-0.04 -0.021,-0.07 -0.03,-0.1c-0.01,-0.03 -0.021,-0.059999 -0.04,-0.08c-0.05,-0.139999 -0.119,-0.27 -0.199,-0.4c-0.051,-0.08 -0.101,-0.150001 -0.148,-0.22c-0.17,-0.23 -0.37,-0.43 -0.592,-0.59c-0.09,-0.07 -0.188,-0.14 -0.288,-0.2c-0.11,-0.06 -0.222,-0.12 -0.341,-0.17c-0.012,-0.01 -0.021,-0.01 -0.029,-0.01c-0.092,-0.04 -0.182,-0.08 -0.271,-0.099999c-0.021,-0.01 -0.041,-0.02 -0.070001,-0.02c-0.061,-0.02 -0.118999,-0.03 -0.179999,-0.05c-0.011001,0 -0.011001,0 -0.021,0c0,0 -0.011001,0 -0.011001,-0.009999c-0.039,-0.01 -0.068999,-0.01 -0.101999,-0.01c-0.02,-0.01 -0.030001,-0.01 -0.04,-0.01c-0.01,0 -0.030001,-0.01 -0.05,-0.01l0,0.01c-0.13,-0.02 -0.27,-0.03 -0.41,-0.03l-0.17,0.01l3.148,3.15c0.014,-0.06 0.014,-0.11 0.014,-0.17l0,-0.08c-0.01,-0.32 -0.07,-0.63 -0.17,-0.91zm-4.94,-1.13c-0.04,0.03 -0.070001,0.07 -0.1,0.11c-0.07,0.06 -0.12,0.12 -0.17,0.190001c-0.01,0.009999 -0.02,0.02 -0.02,0.03c-0.06,0.06 -0.1,0.13 -0.14,0.2c-0.18,0.280001 -0.31,0.6 -0.39,0.93c-0.02,0.09 -0.03,0.19 -0.04,0.28c-0.02,0.13 -0.03,0.25 -0.03,0.38c0,1.66 1.34,3 3,3c0.13,0 0.25,-0.01 0.38,-0.03c0.09,-0.01 0.19,-0.02 0.28,-0.04c0.33,-0.08 0.648,-0.21 0.93,-0.39c0.07,-0.04 0.141,-0.08 0.2,-0.14c0.17,-0.12 0.33,-0.262 0.46,-0.42l-4.23,-4.23c-0.05,0.04 -0.09,0.08 -0.13,0.13zm4.94,1.13c-0.01,-0.04 -0.021,-0.07 -0.03,-0.1c-0.01,-0.03 -0.021,-0.059999 -0.04,-0.08c-0.05,-0.139999 -0.119,-0.27 -0.199,-0.4c-0.051,-0.08 -0.101,-0.150001 -0.148,-0.22c-0.17,-0.23 -0.37,-0.43 -0.592,-0.59c-0.09,-0.07 -0.188,-0.14 -0.288,-0.2c-0.11,-0.06 -0.222,-0.12 -0.341,-0.17c-0.012,-0.01 -0.021,-0.01 -0.029,-0.01c-0.092,-0.04 -0.182,-0.08 -0.271,-0.099999c-0.021,-0.01 -0.041,-0.02 -0.070001,-0.02c-0.061,-0.02 -0.118999,-0.03 -0.179999,-0.05c-0.011001,0 -0.011001,0 -0.021,0c0,0 -0.011001,0 -0.011001,-0.009999c-0.039,-0.01 -0.068999,-0.01 -0.101999,-0.01c-0.02,-0.01 -0.030001,-0.01 -0.04,-0.01c-0.01,0 -0.030001,-0.01 -0.05,-0.01l0,0.01c-0.13,-0.02 -0.27,-0.03 -0.41,-0.03l-0.17,0.01l3.148,3.15c0.014,-0.06 0.014,-0.11 0.014,-0.17l0,-0.08c-0.01,-0.32 -0.07,-0.63 -0.17,-0.91zm-4.94,-1.13c-0.04,0.03 -0.070001,0.07 -0.1,0.11c-0.07,0.06 -0.12,0.12 -0.17,0.190001c-0.01,0.009999 -0.02,0.02 -0.02,0.03c-0.06,0.06 -0.1,0.13 -0.14,0.2c-0.18,0.280001 -0.31,0.6 -0.39,0.93c-0.02,0.09 -0.03,0.19 -0.04,0.28c-0.02,0.13 -0.03,0.25 -0.03,0.38c0,1.66 1.34,3 3,3c0.13,0 0.25,-0.01 0.38,-0.03c0.09,-0.01 0.19,-0.02 0.28,-0.04c0.33,-0.08 0.648,-0.21 0.93,-0.39c0.07,-0.04 0.141,-0.08 0.2,-0.14c0.17,-0.12 0.33,-0.262 0.46,-0.42l-4.23,-4.23c-0.05,0.04 -0.09,0.08 -0.13,0.13zm4.94,1.13c-0.01,-0.04 -0.021,-0.07 -0.03,-0.1c-0.01,-0.03 -0.021,-0.059999 -0.04,-0.08c-0.05,-0.139999 -0.119,-0.27 -0.199,-0.4c-0.051,-0.08 -0.101,-0.150001 -0.148,-0.22c-0.17,-0.23 -0.37,-0.43 -0.592,-0.59c-0.09,-0.07 -0.188,-0.14 -0.288,-0.2c-0.11,-0.06 -0.222,-0.12 -0.341,-0.17c-0.012,-0.01 -0.021,-0.01 -0.029,-0.01c-0.092,-0.04 -0.182,-0.08 -0.271,-0.099999c-0.021,-0.01 -0.041,-0.02 -0.070001,-0.02c-0.061,-0.02 -0.118999,-0.03 -0.179999,-0.05c-0.011001,0 -0.011001,0 -0.021,0c0,0 -0.011001,0 -0.011001,-0.009999c-0.039,-0.01 -0.068999,-0.01 -0.101999,-0.01c-0.02,-0.01 -0.030001,-0.01 -0.04,-0.01c-0.01,0 -0.030001,-0.01 -0.05,-0.01l0,0.01c-0.13,-0.02 -0.27,-0.03 -0.41,-0.03l-0.17,0.01l3.148,3.15c0.014,-0.06 0.014,-0.11 0.014,-0.17l0,-0.08c-0.01,-0.32 -0.07,-0.63 -0.17,-0.91zm-4.94,-1.13c-0.04,0.03 -0.070001,0.07 -0.1,0.11c-0.07,0.06 -0.12,0.12 -0.17,0.190001c-0.01,0.009999 -0.02,0.02 -0.02,0.03c-0.06,0.06 -0.1,0.13 -0.14,0.2c-0.18,0.280001 -0.31,0.6 -0.39,0.93c-0.02,0.09 -0.03,0.19 -0.04,0.28c-0.02,0.13 -0.03,0.25 -0.03,0.38c0,1.66 1.34,3 3,3c0.13,0 0.25,-0.01 0.38,-0.03c0.09,-0.01 0.19,-0.02 0.28,-0.04c0.33,-0.08 0.648,-0.21 0.93,-0.39c0.07,-0.04 0.141,-0.08 0.2,-0.14c0.17,-0.12 0.33,-0.262 0.46,-0.42l-4.23,-4.23c-0.05,0.04 -0.09,0.08 -0.13,0.13zm4.94,1.13c-0.01,-0.04 -0.021,-0.07 -0.03,-0.1c-0.01,-0.03 -0.021,-0.059999 -0.04,-0.08c-0.05,-0.139999 -0.119,-0.27 -0.199,-0.4c-0.051,-0.08 -0.101,-0.150001 -0.148,-0.22c-0.17,-0.23 -0.37,-0.43 -0.592,-0.59c-0.09,-0.07 -0.188,-0.14 -0.288,-0.2c-0.11,-0.06 -0.222,-0.12 -0.341,-0.17c-0.012,-0.01 -0.021,-0.01 -0.029,-0.01c-0.092,-0.04 -0.182,-0.08 -0.271,-0.099999c-0.021,-0.01 -0.041,-0.02 -0.070001,-0.02c-0.061,-0.02 -0.118999,-0.03 -0.179999,-0.05c-0.011001,0 -0.011001,0 -0.021,0c0,0 -0.011001,0 -0.011001,-0.009999c-0.039,-0.01 -0.068999,-0.01 -0.101999,-0.01c-0.02,-0.01 -0.030001,-0.01 -0.04,-0.01c-0.01,0 -0.030001,-0.01 -0.05,-0.01l0,0.01c-0.13,-0.02 -0.27,-0.03 -0.41,-0.03l-0.17,0.01l3.148,3.15c0.014,-0.06 0.014,-0.11 0.014,-0.17l0,-0.08c-0.01,-0.32 -0.07,-0.63 -0.17,-0.91zm-4.94,-1.13c-0.04,0.03 -0.070001,0.07 -0.1,0.11c-0.07,0.06 -0.12,0.12 -0.17,0.190001c-0.01,0.009999 -0.02,0.02 -0.02,0.03c-0.06,0.06 -0.1,0.13 -0.14,0.2c-0.18,0.280001 -0.31,0.6 -0.39,0.93c-0.02,0.09 -0.03,0.19 -0.04,0.28c-0.02,0.13 -0.03,0.25 -0.03,0.38c0,1.66 1.34,3 3,3c0.13,0 0.25,-0.01 0.38,-0.03c0.09,-0.01 0.19,-0.02 0.28,-0.04c0.33,-0.08 0.648,-0.21 0.93,-0.39c0.07,-0.04 0.141,-0.08 0.2,-0.14c0.17,-0.12 0.33,-0.262 0.46,-0.42l-4.23,-4.23c-0.05,0.04 -0.09,0.08 -0.13,0.13z" opacity="0.8" fill="#FFFFFF"/>
    <path id="svg_7" d="m10.02,9.75l4.23,4.23c-0.13,0.158 -0.29,0.3 -0.46,0.42c-0.06,0.06 -0.13,0.1 -0.2,0.14c-0.279,0.18 -0.6,0.31 -0.93,0.39c-0.09,0.021 -0.19,0.03 -0.28,0.04c-0.13,0.02 -0.25,0.03 -0.38,0.03c-1.66,0 -3,-1.34 -3,-3c0,-0.13 0.01,-0.25 0.03,-0.38c0.01,-0.09 0.02,-0.19 0.04,-0.28c0.08,-0.33 0.21,-0.65 0.39,-0.93c0.04,-0.07 0.08,-0.139999 0.14,-0.2c0,-0.01 0.009999,-0.02 0.02,-0.03c0.05,-0.070001 0.1,-0.13 0.17,-0.190001c0.03,-0.04 0.06,-0.08 0.1,-0.11c0.04,-0.05 0.08,-0.09 0.13,-0.13z" fill="#66BB6A"/>
    <path id="svg_8" d="m15,11.92l0,0.08c0,0.06 0,0.11 -0.01,0.17l-3.15,-3.15l0.17,-0.01c0.139999,0 0.28,0.01 0.41,0.03c0.01,-0.01 0.03,-0.01 0.05,0c0.009999,0 0.02,0 0.04,0.01c0.03,0 0.061,0 0.101999,0.01c0.011001,0 0.021001,0.009999 0.029,0.009999c0.061,0.02 0.119,0.030001 0.18,0.05c0.029,0 0.051,0.01 0.068,0.02c0.092,0.02 0.182,0.059999 0.271,0.099999c0.01,0 0.02,0 0.029,0.01c0.118999,0.05 0.229,0.11 0.34,0.17c0.101,0.059999 0.200999,0.13 0.290999,0.2c0.22,0.16 0.42,0.36 0.59,0.59c0.05,0.07 0.1,0.14 0.148,0.22c0.080001,0.13 0.149,0.26 0.199,0.4c0.03,0.06 0.051,0.12 0.07,0.18c0.103001,0.28 0.163,0.59 0.173,0.91z" fill="#66BB6A"/>
    <path id="svg_9" d="m10.02,9.75l4.23,4.23c-0.13,0.158 -0.29,0.3 -0.46,0.42c-0.06,0.06 -0.13,0.1 -0.2,0.14c-0.279,0.18 -0.6,0.31 -0.93,0.39c-0.09,0.021 -0.19,0.03 -0.28,0.04c-0.13,0.02 -0.25,0.03 -0.38,0.03c-1.66,0 -3,-1.34 -3,-3c0,-0.13 0.01,-0.25 0.03,-0.38c0.01,-0.09 0.02,-0.19 0.04,-0.28c0.08,-0.33 0.21,-0.65 0.39,-0.93c0.04,-0.07 0.08,-0.139999 0.14,-0.2c0,-0.01 0.009999,-0.02 0.02,-0.03c0.05,-0.070001 0.1,-0.13 0.17,-0.190001c0.03,-0.04 0.06,-0.08 0.1,-0.11c0.04,-0.05 0.08,-0.09 0.13,-0.13z" fill="#FFFFFF"/>
    <path id="svg_10" d="m15,11.92l0,0.08c0,0.06 0,0.11 -0.01,0.17l-3.15,-3.15l0.17,-0.01c0.139999,0 0.28,0.01 0.41,0.03c0.01,-0.01 0.03,-0.01 0.05,0c0.009999,0 0.02,0 0.04,0.01c0.03,0 0.061,0 0.101999,0.01c0.011001,0 0.021001,0.009999 0.029,0.009999c0.061,0.02 0.119,0.030001 0.18,0.05c0.029,0 0.051,0.01 0.068,0.02c0.092,0.02 0.182,0.059999 0.271,0.099999c0.01,0 0.02,0 0.029,0.01c0.118999,0.05 0.229,0.11 0.34,0.17c0.101,0.059999 0.200999,0.13 0.290999,0.2c0.22,0.16 0.42,0.36 0.59,0.59c0.05,0.07 0.1,0.14 0.148,0.22c0.080001,0.13 0.149,0.26 0.199,0.4c0.03,0.06 0.051,0.12 0.07,0.18c0.103001,0.28 0.163,0.59 0.173,0.91z" fill="#FFFFFF"/>
    <path id="svg_11" d="m19.15,6.92c-0.011999,0 -0.011999,-0.01 -0.011999,-0.01c-0.051001,-0.04 -0.101,-0.07 -0.148001,-0.11c-0.140999,-0.1 -0.280001,-0.2 -0.42,-0.3c-0.140999,-0.1 -0.301001,-0.2 -0.449999,-0.28c-0.101002,-0.07 -0.200001,-0.13 -0.312,-0.18c-0.181,-0.11 -0.358,-0.21 -0.539001,-0.29c-0.039,-0.02 -0.068998,-0.04 -0.108999,-0.05c-0.24,-0.13 -0.48,-0.24 -0.73,-0.33c-0.029001,-0.02 -0.059999,-0.03 -0.1,-0.04c-0.25,-0.1 -0.5,-0.19 -0.75,-0.27c-0.57,-0.19 -1.15,-0.33 -1.75,-0.42c-0.301,-0.04 -0.6,-0.08 -0.91,-0.1c-0.3,-0.03 -0.61,-0.04 -0.92,-0.04c-0.21,0 -0.43,0.01 -0.64,0.02c-0.139999,0 -0.27,0.01 -0.41,0.03c-0.34,0.03 -0.679999,0.07 -1.009999,0.13c-0.17,0.03 -0.330001,0.06 -0.490001,0.1c-0.17,0.04 -0.33,0.08 -0.49,0.12s-0.32,0.09 -0.48,0.14s-0.32,0.1 -0.469999,0.16l2.15,2.15c0.29,-0.12 0.59,-0.2 0.900001,-0.26c0.139999,-0.03 0.28,-0.05 0.429999,-0.06c0.17,-0.02 0.34,-0.03 0.51,-0.03c2.76,0 5,2.24 5,5c0,0.17 -0.01,0.34 -0.028999,0.51c-0.011002,0.15 -0.029001,0.29 -0.061001,0.432c-0.060999,0.311 -0.141001,0.608 -0.26,0.898l2.77,2.771c0.84,-1.353 1.33,-2.940001 1.33,-4.65c0,-1.881001 -0.59,-3.611 -1.6,-5.041zm-6.120999,9.971001c-0.149,0.028999 -0.299001,0.050999 -0.449,0.068998c-0.19,0.030001 -0.38,0.040001 -0.58,0.040001c-2.76,0 -5,-2.24 -5,-5c0,-0.2 0.01,-0.39 0.04,-0.58c0.02,-0.15 0.04,-0.3 0.07,-0.45c0.21,-1.03 0.75,-1.95 1.49,-2.64l-2.33,-2.33c-0.49,0.26 -0.96,0.57 -1.41,0.91c-1.02,1.43 -1.61,3.17 -1.61,5.05c0,1.96 0.64,3.76 1.73,5.22c0,0 0,0.011999 0.01,0.021c0.04,0.028999 0.07,0.049999 0.11,0.067999c0.16,0.131001 0.34,0.239 0.51,0.342001c0.08,0.068001 0.16,0.107 0.24,0.157999c0.1,0.069 0.22,0.142 0.33,0.189001c0.2,0.119999 0.39,0.229 0.6,0.32c0.24,0.118999 0.49,0.238001 0.74,0.328001c0.09,0.052 0.19,0.08 0.29,0.108999c0.19,0.096001 0.39,0.164999 0.6,0.223999c0,0 0,0 0.01,0c0.24,0.08 0.48,0.148001 0.73,0.211c0.3,0.08 0.610001,0.140001 0.93,0.188c0.09,0.021 0.190001,0.030001 0.29,0.040001c0.22,0.039999 0.440001,0.062 0.66,0.08l0.04,0c0.31,0.030001 0.620001,0.039999 0.93,0.039999c0.16,0 0.33,0 0.49,-0.009998c0.1,0 0.21,-0.012001 0.31,-0.021002c0.24,-0.009998 0.47,-0.039999 0.7,-0.067999c0.141,-0.01 0.279,-0.039 0.42,-0.062c0.68,-0.108 1.33,-0.271 1.95,-0.489c0.170001,-0.060999 0.339999,-0.118999 0.509999,-0.188c0.591002,-0.24 1.160002,-0.521 1.700001,-0.851l-2.41,-2.409c-0.690001,0.741001 -1.609,1.280001 -2.641,1.491001z" opacity="0.6" fill="#FFFFFF"/>
   </g>
   <path id="svg_12" d="m7.344,10.094c0,0 0.406,-2.063 3.266,-2.891l-2.13,-2.163c0,0 -2.808,0.788 -4.073999,2.569c-1.266,1.781 2.938,2.485 2.938,2.485z" opacity="0.6" fill="#FFFFFF"/>
   <path id="svg_13" d="m16.65,13.84c0,0 -0.587999,1.723 -2.433,2.645l2.161,2.175999c0,0 2.261999,-0.877998 3.229,-2.348l-2.957001,-2.473z" opacity="0.6" fill="#FFFFFF"/>
   <g id="Capa_3">
    <polygon id="svg_14" points="2,4.281 3.266,2.969 21,20.703 19.734,21.984   " fill="#333333"/>
   </g>
  </g>
  <g id="Capa_2_1_"/>
 </g>
</svg>
